@startuml
class Usuario{
    nombre: String
    apellido : String
    edad : Integer
    sexo : Sexo
    direccion : Direccion
}

class UsuarioPasivo extends Usuario{
    + confirmarCuidado(Viaje) : bool
    - aceptarCuidado(Viaje)
    - rechazarCuidado(Viaje)
}

enum Sexo{
    Masculino
    Femenino
    Otro
}

class UsuarioActivo extends UsuarioPasivo {
    accionAnteIncidente : EstrategiaAnteIncidente

    + comenzarViaje() : Viaje
    + seleccionarCuidador(List<UsuarioPasivo>)
    + confirmarCuidado(Viaje)
    + llegueBien(Viaje)
}

class Viaje{
    ruta: Ruta
    estado : EstadoViaje
    transeunte : Usuario
    cuidador : Usuario
    + comenzar()
    + finalizar()
}

enum EstadoViaje{
    EN_CURSO
    FINALIZADO
}

class Ruta{
    inicio : Direccion
    fin : Direccion
    duracion : Integer
    + calcularDuracion()
}

interface EstrategiaAnteIncidente {
    ejecutarEstrategia()
}

note left of EstrategiaAnteIncidente
    Implementacion del patron
    **Strategy** para que un usuario
    pueda elegir como actuar ante
    un incidente.
end note

class NotificarCuidador{}

class NotificarPolicia{}

class NotificarCelular{}

class Esperar{
    - esperar(minutos : Integer)
}

class Direccion{
    calle : String
    codigoPostal : String
    altura : String
}

Usuario o-- Direccion
Usuario o-- Viaje

UsuarioPasivo -- Sexo
UsuarioActivo *-- EstrategiaAnteIncidente

Viaje o-- Ruta
Viaje -- EstadoViaje

Ruta o-- Direccion

EstrategiaAnteIncidente <|.. NotificarCuidador
EstrategiaAnteIncidente <|.. NotificarCelular
EstrategiaAnteIncidente <|.. NotificarPolicia
EstrategiaAnteIncidente <|.. Esperar

@enduml